#VRML V2.0 utf8
Shape {
appearance Appearance {
material Material {
ambientIntensity 0
diffuseColor 0.749 0.749 0.749 
specularColor 0.0745 0.0745 0.0745 
shininess 0.000781 
transparency 0
}
}
geometry IndexedFaceSet {
normalPerVertex TRUE
solid TRUE
convex TRUE
coord Coordinate { point [
-1 -1.1 -0.27500001,
-1 1.1 -0.27500001,
-1 -1.1 -0.27500001,
-1 1.1 -0.27500001,
-1 -1.1 -0.375,
-1 1.1 -0.375,
1 -1.1 -0.27500001,
1 1.1 -0.27500001,
1 -1.1 -0.27500001,
1 1.1 -0.27500001,
1 -1.1 -0.375,
1 1.1 -0.375
] }
normal Normal { vector [
-1 0 0,
0 0 1,
0 -1 0,
0 1 0,
0 0 -1,
1 0 0
] }
coordIndex [
3,5,2,-1,
2,5,4,-1,
5,11,4,-1,
4,11,10,-1,
11,9,10,-1,
10,9,8,-1,
7,1,6,-1,
6,1,0,-1,
9,11,3,-1,
3,11,5,-1,
10,8,4,-1,
4,8,2,-1
]
normalIndex [
0,0,0,-1,
0,0,0,-1,
4,4,4,-1,
4,4,4,-1,
5,5,5,-1,
5,5,5,-1,
1,1,1,-1,
1,1,1,-1,
3,3,3,-1,
3,3,3,-1,
2,2,2,-1,
2,2,2,-1
]
}
}
Shape {
appearance Appearance {
material Material {
ambientIntensity 0
diffuseColor 0.749 0.749 0.749 
specularColor 0.0745 0.0745 0.0745 
shininess 0.000781 
transparency 0
}
}
geometry IndexedFaceSet {
normalPerVertex TRUE
solid TRUE
convex TRUE
coord Coordinate { point [
-1.1 -1.1 0.37499997,
-1.1 1.1 0.37499997,
-1.1 -1.1 -0.375,
-1.1 1.1 -0.375,
-1 -1.1 0.37499997,
-1 1.1 0.37499997,
-1 -1.1 -0.375,
-1 1.1 -0.375
] }
normal Normal { vector [
-1 0 0,
0 0 1,
0 -1 0,
0 1 0,
0 0 -1,
1 0 0
] }
coordIndex [
4,6,5,-1,
5,6,7,-1,
7,3,5,-1,
5,3,1,-1,
6,2,7,-1,
7,2,3,-1,
4,0,6,-1,
6,0,2,-1,
3,2,1,-1,
1,2,0,-1,
4,5,0,-1,
0,5,1,-1
]
normalIndex [
5,5,5,-1,
5,5,5,-1,
3,3,3,-1,
3,3,3,-1,
4,4,4,-1,
4,4,4,-1,
2,2,2,-1,
2,2,2,-1,
0,0,0,-1,
0,0,0,-1,
1,1,1,-1,
1,1,1,-1
]
}
}
Shape {
appearance Appearance {
material Material {
ambientIntensity 0
diffuseColor 0.749 0.749 0.749 
specularColor 0.0745 0.0745 0.0745 
shininess 0.000781 
transparency 0
}
}
geometry IndexedFaceSet {
normalPerVertex TRUE
solid TRUE
convex TRUE
coord Coordinate { point [
1 -1.1 0.37499997,
1 1.1 0.37499997,
1 -1.1 -0.375,
1 1.1 -0.375,
1.1 -1.1 0.37499997,
1.1 1.1 0.37499997,
1.1 -1.1 -0.375,
1.1 1.1 -0.375
] }
normal Normal { vector [
-1 0 0,
0 0 1,
0 -1 0,
0 1 0,
0 0 -1,
1 0 0
] }
coordIndex [
4,6,5,-1,
5,6,7,-1,
7,3,5,-1,
5,3,1,-1,
6,2,7,-1,
7,2,3,-1,
4,0,6,-1,
6,0,2,-1,
3,2,1,-1,
1,2,0,-1,
4,5,0,-1,
0,5,1,-1
]
normalIndex [
5,5,5,-1,
5,5,5,-1,
3,3,3,-1,
3,3,3,-1,
4,4,4,-1,
4,4,4,-1,
2,2,2,-1,
2,2,2,-1,
0,0,0,-1,
0,0,0,-1,
1,1,1,-1,
1,1,1,-1
]
}
}
Shape {
appearance Appearance {
material Material {
ambientIntensity 0
diffuseColor 1 1 1
specularColor 0 0 0
shininess 0
transparency 0
}
texture DEF H3470 ImageTexture {
repeatS TRUE
repeatT TRUE
url ["H3470.jpg"]
}
}
geometry IndexedFaceSet {
normalPerVertex TRUE
solid TRUE
convex TRUE
coord Coordinate { point [
-0.89999998 0.069999933 -0.23500001,
-0.89999998 0.43050003 -0.23500001,
-0.89999998 0.50699997 -0.23500001,
-0.89999998 0.56999993 -0.23500001,
-0.89999998 0.069999933 -0.255,
-0.89999998 0.20200002 -0.255,
-0.89999998 0.20200002 -0.27500001,
-0.89999998 0.56999993 -0.27500001,
-0.85049999 0.069999933 -0.23500001,
-0.85049999 0.43050003 -0.23500001,
-0.85049999 0.50699997 -0.23500001,
-0.85049999 0.56999993 -0.23500001,
-0.80095106 0.41830897 -0.23500001,
-0.80095106 0.44330895 -0.23500001,
-0.80095106 0.41830897 -0.24000001,
-0.80095106 0.44330895 -0.24000001,
-0.80064207 0.4173578 -0.23500001,
-0.80064207 0.4423579 -0.23500001,
-0.80064207 0.4173578 -0.23925325,
-0.80064207 0.41735792 -0.23925325,
-0.80064207 0.4423579 -0.23925325,
-0.80064207 0.41735792 -0.24000001,
-0.80064207 0.4423579 -0.24000001,
-0.80058777 0.41719091 -0.23500001,
-0.80058777 0.442191 -0.23500001,
-0.80058777 0.41719091 -0.24000001,
-0.80058777 0.442191 -0.24000001,
-0.80057919 0.41857922 -0.23500001,
-0.80057919 0.4435792 -0.23500001,
-0.80057919 0.41857922 -0.23804501,
-0.80057919 0.44357908 -0.23804501,
-0.80057919 0.4435792 -0.23804501,
-0.80057919 0.41857922 -0.24000001,
-0.80057919 0.44357908 -0.24000001,
-0.80000001 0.41900003 -0.23500001,
-0.80000001 0.44400001 -0.23500001,
-0.80000001 0.41900003 -0.24000001,
-0.80000001 0.44400001 -0.24000001,
-0.79942083 0.41857922 -0.23500001,
-0.79942083 0.44357908 -0.23500001,
-0.79942083 0.41857922 -0.23695502,
-0.79942083 0.44357908 -0.23695502,
-0.79942083 0.4435792 -0.23695502,
-0.79942083 0.41857922 -0.24000001,
-0.79942083 0.4435792 -0.24000001,
-0.79941219 0.41719091 -0.23500001,
-0.79941219 0.442191 -0.23500001,
-0.79941219 0.41719091 -0.24000001,
-0.79941219 0.442191 -0.24000001,
-0.79935795 0.41735792 -0.23500001,
-0.79935795 0.4423579 -0.23500001,
-0.79935795 0.4173578 -0.23574676,
-0.79935795 0.41735792 -0.23574676,
-0.79935795 0.4423579 -0.23574676,
-0.79935795 0.4173578 -0.24000001,
-0.79935795 0.4423579 -0.24000001,
-0.79904896 0.41830897 -0.23500001,
-0.79904896 0.44330895 -0.23500001,
-0.79904896 0.41830897 -0.24000001,
-0.79904896 0.44330895 -0.24000001,
-0.60000002 0.069999933 -0.23500001,
-0.60000002 0.43050003 -0.23500001,
-0.60000002 0.50699997 -0.23500001,
-0.60000002 0.56999993 -0.23500001,
-0.40095106 0.41830897 -0.23500001,
-0.40095106 0.44330895 -0.23500001,
-0.40095106 0.41830897 -0.24000001,
-0.40095106 0.44330895 -0.24000001,
-0.40064204 0.4173578 -0.23500001,
-0.40064204 0.4423579 -0.23500001,
-0.40064204 0.4173578 -0.23925325,
-0.40064204 0.41735792 -0.23925325,
-0.40064204 0.4423579 -0.23925325,
-0.40064204 0.41735792 -0.24000001,
-0.40064204 0.4423579 -0.24000001,
-0.4005878 0.41719091 -0.23500001,
-0.4005878 0.442191 -0.23500001,
-0.4005878 0.41719091 -0.24000001,
-0.4005878 0.442191 -0.24000001,
-0.40057921 0.41857922 -0.23804501,
-0.40057921 0.44357908 -0.23804501,
-0.40057921 0.41857922 -0.24000001,
-0.40057921 0.44357908 -0.24000001,
-0.40057909 0.41857922 -0.23500001,
-0.40057909 0.4435792 -0.23500001,
-0.40057909 0.41857922 -0.23804501,
-0.40057909 0.4435792 -0.23804501,
-0.40000001 0.41900003 -0.23500001,
-0.40000001 0.44400001 -0.23500001,
-0.40000001 0.41900003 -0.24000001,
-0.40000001 0.44400001 -0.24000001,
-0.39942074 0.41857922 -0.23500001,
-0.39942074 0.44357908 -0.23500001,
-0.39942074 0.41857922 -0.23695502,
-0.39942074 0.44357908 -0.23695502,
-0.39942074 0.4435792 -0.23695502,
-0.39942074 0.41857922 -0.24000001,
-0.39942074 0.4435792 -0.24000001,
-0.39941221 0.41719091 -0.23500001,
-0.39941221 0.442191 -0.23500001,
-0.39941221 0.41719091 -0.24000001,
-0.39941221 0.442191 -0.24000001,
-0.39935791 0.41735792 -0.23500001,
-0.39935791 0.4423579 -0.23500001,
-0.39935791 0.4173578 -0.23574676,
-0.39935791 0.41735792 -0.23574676,
-0.39935791 0.4423579 -0.23574676,
-0.39935791 0.4173578 -0.24000001,
-0.39935791 0.4423579 -0.24000001,
-0.39904895 0.41830897 -0.23500001,
-0.39904895 0.44330895 -0.23500001,
-0.39904895 0.41830897 -0.24000001,
-0.39904895 0.44330895 -0.24000001,
-0.2 0.069999933 -0.23500001,
-0.2 0.43050003 -0.23500001,
-0.2 0.50699997 -0.23500001,
-0.2 0.56999993 -0.23500001,
-0.00095105654 0.41830897 -0.23500001,
-0.00095105654 0.44330895 -0.23500001,
-0.00095105654 0.41830897 -0.24000001,
-0.00095105654 0.44330895 -0.24000001,
-0.00064206123 0.4173578 -0.23500001,
-0.00064206123 0.4423579 -0.23500001,
-0.00064206123 0.4173578 -0.23925325,
-0.00064206123 0.41735792 -0.23925325,
-0.00064206123 0.4423579 -0.23925325,
-0.00064206123 0.41735792 -0.24000001,
-0.00064206123 0.4423579 -0.24000001,
-0.00058778527 0.41719091 -0.23500001,
-0.00058778527 0.442191 -0.23500001,
-0.00058778527 0.41719091 -0.24000001,
-0.00058778527 0.442191 -0.24000001,
-0.00057911873 0.41857922 -0.23500001,
-0.00057911873 0.4435792 -0.23500001,
-0.00057911873 0.41857922 -0.23804501,
-0.00057911873 0.44357908 -0.23804501,
-0.00057911873 0.4435792 -0.23804501,
-0.00057911873 0.41857922 -0.24000001,
-0.00057911873 0.44357908 -0.24000001,
-4.6029382e-17 0.41900003 -0.23500001,
-4.6029382e-17 0.44400001 -0.23500001,
-4.578445e-17 0.41900003 -0.23500001,
-4.578445e-17 0.44400001 -0.23500001,
-4.578445e-17 0.41900003 -0.24000001,
-4.578445e-17 0.44400001 -0.24000001,
0.00057911873 0.41857922 -0.23500001,
0.00057911873 0.44357908 -0.23500001,
0.00057911873 0.41857922 -0.23695502,
0.00057911873 0.44357908 -0.23695502,
0.00057923794 0.41857922 -0.23695502,
0.00057923794 0.4435792 -0.23695502,
0.00057923794 0.41857922 -0.24000001,
0.00057923794 0.4435792 -0.24000001,
0.00058778527 0.41719091 -0.23500001,
0.00058778527 0.442191 -0.23500001,
0.00058778527 0.41719091 -0.24000001,
0.00058778527 0.442191 -0.24000001,
0.00064206123 0.41735792 -0.23500001,
0.00064206123 0.4423579 -0.23500001,
0.00064206123 0.4173578 -0.23574676,
0.00064206123 0.41735792 -0.23574676,
0.00064206123 0.4423579 -0.23574676,
0.00064206123 0.4173578 -0.24000001,
0.00064206123 0.4423579 -0.24000001,
0.00095105654 0.41830897 -0.23500001,
0.00095105654 0.44330895 -0.23500001,
0.00095105654 0.41830897 -0.24000001,
0.00095105654 0.44330895 -0.24000001,
0.2 0.069999933 -0.23500001,
0.2 0.43050003 -0.23500001,
0.2 0.50699997 -0.23500001,
0.2 0.56999993 -0.23500001,
0.39904895 0.41830897 -0.23500001,
0.39904895 0.44330895 -0.23500001,
0.39904895 0.41830897 -0.24000001,
0.39904895 0.44330895 -0.24000001,
0.39935791 0.4173578 -0.23500001,
0.39935791 0.4423579 -0.23500001,
0.39935791 0.4173578 -0.23925325,
0.39935791 0.41735792 -0.23925325,
0.39935791 0.4423579 -0.23925325,
0.39935791 0.41735792 -0.24000001,
0.39935791 0.4423579 -0.24000001,
0.39941221 0.41719091 -0.23500001,
0.39941221 0.442191 -0.23500001,
0.39941221 0.41719091 -0.24000001,
0.39941221 0.442191 -0.24000001,
0.39942074 0.41857922 -0.23500001,
0.39942074 0.4435792 -0.23500001,
0.39942074 0.41857922 -0.23804501,
0.39942074 0.44357908 -0.23804501,
0.39942074 0.4435792 -0.23804501,
0.39942074 0.41857922 -0.24000001,
0.39942074 0.44357908 -0.24000001,
0.40000001 0.41900003 -0.23500001,
0.40000001 0.44400001 -0.23500001,
0.40000001 0.41900003 -0.24000001,
0.40000001 0.44400001 -0.24000001,
0.40057909 0.41857922 -0.23500001,
0.40057909 0.44357908 -0.23500001,
0.40057909 0.41857922 -0.23695502,
0.40057909 0.44357908 -0.23695502,
0.40057921 0.41857922 -0.23695502,
0.40057921 0.4435792 -0.23695502,
0.40057921 0.41857922 -0.24000001,
0.40057921 0.4435792 -0.24000001,
0.4005878 0.41719091 -0.23500001,
0.4005878 0.442191 -0.23500001,
0.4005878 0.41719091 -0.24000001,
0.4005878 0.442191 -0.24000001,
0.40064204 0.41735792 -0.23500001,
0.40064204 0.4423579 -0.23500001,
0.40064204 0.4173578 -0.23574676,
0.40064204 0.41735792 -0.23574676,
0.40064204 0.4423579 -0.23574676,
0.40064204 0.4173578 -0.24000001,
0.40064204 0.4423579 -0.24000001,
0.40095106 0.41830897 -0.23500001,
0.40095106 0.44330895 -0.23500001,
0.40095106 0.41830897 -0.24000001,
0.40095106 0.44330895 -0.24000001,
0.60000002 0.069999933 -0.23500001,
0.60000002 0.43050003 -0.23500001,
0.60000002 0.50699997 -0.23500001,
0.60000002 0.56999993 -0.23500001,
0.79904896 0.41830897 -0.23500001,
0.79904896 0.44330895 -0.23500001,
0.79904896 0.41830897 -0.24000001,
0.79904896 0.44330895 -0.24000001,
0.79935789 0.4173578 -0.23500001,
0.79935789 0.4423579 -0.23500001,
0.79935789 0.4173578 -0.23925325,
0.79935789 0.41735792 -0.23925325,
0.79935789 0.4423579 -0.23925325,
0.79935789 0.41735792 -0.24000001,
0.79935789 0.4423579 -0.24000001,
0.79941219 0.41719091 -0.23500001,
0.79941219 0.442191 -0.23500001,
0.79941219 0.41719091 -0.24000001,
0.79941219 0.442191 -0.24000001,
0.79942083 0.41857922 -0.23500001,
0.79942083 0.4435792 -0.23500001,
0.79942083 0.41857922 -0.23804501,
0.79942083 0.44357908 -0.23804501,
0.79942083 0.4435792 -0.23804501,
0.79942083 0.41857922 -0.24000001,
0.79942083 0.44357908 -0.24000001,
0.80000001 0.41900003 -0.23500001,
0.80000001 0.44400001 -0.23500001,
0.80000001 0.41900003 -0.24000001,
0.80000001 0.44400001 -0.24000001,
0.80057907 0.41857922 -0.23500001,
0.80057907 0.44357908 -0.23500001,
0.80057907 0.41857922 -0.23695502,
0.80057907 0.44357908 -0.23695502,
0.80057907 0.4435792 -0.23695502,
0.80057907 0.41857922 -0.24000001,
0.80057907 0.4435792 -0.24000001,
0.80058777 0.41719091 -0.23500001,
0.80058777 0.442191 -0.23500001,
0.80058777 0.41719091 -0.24000001,
0.80058777 0.442191 -0.24000001,
0.80064178 0.41735792 -0.23500001,
0.80064178 0.4423579 -0.23500001,
0.80064178 0.4173578 -0.23574676,
0.80064178 0.41735792 -0.23574676,
0.80064178 0.4423579 -0.23574676,
0.80064178 0.4173578 -0.24000001,
0.80064178 0.4423579 -0.24000001,
0.80095106 0.41830897 -0.23500001,
0.80095106 0.44330895 -0.23500001,
0.80095106 0.41830897 -0.24000001,
0.80095106 0.44330895 -0.24000001,
0.89999998 0.069999933 -0.23500001,
0.89999998 0.43050003 -0.23500001,
0.89999998 0.50699997 -0.23500001,
0.89999998 0.56999993 -0.23500001,
0.89999998 0.069999933 -0.255,
0.89999998 0.20200002 -0.255,
0.89999998 0.20200002 -0.27500001,
0.89999998 0.56999993 -0.27500001
] }
normal Normal { vector [
-1 0 0,
-0.951057 -0.309017 0,
-0.707107 0.707107 0,
-0.707107 -0.707107 0,
-0.587785 0.809017 0,
0 -1 0,
0 0 1,
0 -1 0,
0 1 0,
0 0 -1,
0 0 1,
0.587785 0.809017 0,
0.707107 -0.707107 0,
0.707107 0.707107 0,
0.951057 -0.309017 0,
1 0 0
] }
texCoord TextureCoordinate { point [
-4.21429 0,
-4.21429 0.0487805,
-4.21429 0.097561,
-4.21429 1,
-4.21429 1.32195,
-4.21429 2.21951,
-4.03675 0,
-4.03675 0.00476831,
-4.03675 0.00476831,
-4.03675 0.0121951,
-4.03571 0,
-4.03571 0.0121951,
-4.03468 0,
-4.03468 0.00742681,
-4.03468 0.00742681,
-4.03468 0.0121951,
-3.67857 0,
-3.32246 0.00476831,
-3.32246 0.0121951,
-3.32246 0,
-3.32246 0.00476831,
-3.32143 0,
-3.32143 0.0121951,
-3.32039 0,
-3.32039 0.00742681,
-3.32039 0.00742681,
-3.32039 0.0121951,
-2.96429 0,
-2.60818 0.00476831,
-2.60818 0.0121951,
-2.60818 0,
-2.60818 0.00476831,
-2.60714 0,
-2.60714 0.0121951,
-2.60611 0,
-2.60611 0.00742681,
-2.60611 0.00742681,
-2.60611 0.0121951,
-2.25 0,
-1.89389 0,
-1.89389 0.00476831,
-1.89389 0.00476831,
-1.89389 0.0121951,
-1.89286 0,
-1.89286 0.0121951,
-1.89182 0,
-1.89182 0.00742681,
-1.89182 0.00742681,
-1.89182 0.0121951,
-1.53571 0,
-1.17961 0,
-1.17961 0.00476831,
-1.17961 0.00476831,
-1.17961 0.0121951,
-1.17857 0,
-1.17857 0.0121951,
-1.17754 0,
-1.17754 0.00742681,
-1.17754 0.00742681,
-1.17754 0.0121951,
-1.08839 0,
-1 0,
-1 0.0487805,
-1 0.097561,
-1 1,
-1 1.32195,
-1 2.21951,
-0.0714286 1.32195,
-0.0714286 2.21951,
-0.0357143 1,
-0.0357143 1.32195,
-0.00892857 1.84721,
-0.00892857 1.84953,
-0.00892857 1.85019,
-0.00892857 1.90819,
-0.00892857 1.91051,
-0.00892857 1.91117,
-0.00349108 1.85019,
-0.00349108 1.91117,
-0.00349108 1.85019,
-0.00349108 1.91117,
-0.00133347 1.84721,
-0.00133347 1.90819,
-0.00133347 1.84721,
-0.00133347 1.90819,
0 1,
0 1.84721,
0 1.84721,
0 1.84953,
0 1.85019,
0 1.87927,
0 1.90819,
0 1.91051,
0 1.91117,
0 1.91117,
0 2.06585,
0 2.21951,
0.00543749 1.85019,
0.00543749 1.91117,
0.00543749 1.85019,
0.00543749 1.91117,
0.00759509 1.84721,
0.00759509 1.84721,
0.00759509 1.90819,
0.00892857 1.84721,
0.00892857 1.84953,
0.00892857 1.85019,
0.00892857 1.90819,
0.00892857 1.91051,
0.00892857 1.91117,
0.0357143 1,
0.0357143 1.32195,
0.0714286 1.32195,
0.0714286 2.21951,
1 0,
1 0.097561,
1 1,
1 1.87927,
1 2.06585,
1 2.21951,
1.08839 0,
1.08839 1,
1.08839 1.87927,
1.08839 2.06585,
1.08839 2.21951,
1.17687 1.84953,
1.17687 1.91051,
1.17742 0,
1.17742 0.0103738,
1.17742 0.0121951,
1.17752 0,
1.17752 0.0121951,
1.17752 1.84681,
1.17752 1.90778,
1.17857 1.85122,
1.17857 1.9122,
1.17962 0,
1.17962 0.0121951,
1.17962 1.84681,
1.17962 1.90778,
1.17972 0,
1.17972 0.00182133,
1.17972 0.00182133,
1.17972 0.0121951,
1.18027 1.84953,
1.18027 1.91051,
1.53571 0,
1.53571 1,
1.53571 1.87927,
1.53571 2.06585,
1.53571 2.21951,
1.89116 1.84953,
1.89116 1.91051,
1.89171 0,
1.89171 0.0103738,
1.89171 0.0121951,
1.89181 0,
1.89181 0.0121951,
1.89181 1.84681,
1.89181 1.90778,
1.89286 1.85122,
1.89286 1.9122,
1.89391 0,
1.89391 0.0121951,
1.89391 1.84681,
1.89391 1.90778,
1.894 0,
1.894 0.00182133,
1.894 0.00182133,
1.894 0.0121951,
1.89456 1.84953,
1.89456 1.91051,
2.25 0,
2.25 1,
2.25 1.87927,
2.25 2.06585,
2.25 2.21951,
2.60544 1.84953,
2.60544 1.91051,
2.606 0,
2.606 0.0103738,
2.606 0.0121951,
2.60609 0,
2.60609 0.0121951,
2.60609 1.84681,
2.60609 1.90778,
2.60714 1.85122,
2.60714 1.9122,
2.60819 0,
2.60819 0.0121951,
2.60819 1.84681,
2.60819 1.90778,
2.60829 0,
2.60829 0.00182133,
2.60829 0.00182133,
2.60829 0.0121951,
2.60884 1.84953,
2.60884 1.91051,
2.96429 0,
2.96429 1,
2.96429 1.87927,
2.96429 2.06585,
2.96429 2.21951,
3.31973 1.84953,
3.31973 1.91051,
3.32028 0,
3.32028 0.0103738,
3.32028 0.0121951,
3.32038 0,
3.32038 0.0121951,
3.32038 1.84681,
3.32038 1.90778,
3.32143 1.85122,
3.32143 1.9122,
3.32248 0,
3.32248 0.0121951,
3.32248 1.84681,
3.32248 1.90778,
3.32258 0,
3.32258 0.00182133,
3.32258 0.00182133,
3.32258 0.0121951,
3.32313 1.84953,
3.32313 1.91051,
3.67857 0,
3.67857 1,
3.67857 1.87927,
3.67857 2.06585,
3.67857 2.21951,
4.03402 1.84953,
4.03402 1.91051,
4.03457 0,
4.03457 0.0103738,
4.03457 0.0121951,
4.03466 0,
4.03466 0.0121951,
4.03466 1.84681,
4.03466 1.90778,
4.03571 1.85122,
4.03571 1.9122,
4.03676 0,
4.03676 0.0121951,
4.03676 1.84681,
4.03676 1.90778,
4.03686 0,
4.03686 0.00182133,
4.03686 0.00182133,
4.03686 0.0121951,
4.03741 1.84953,
4.03741 1.91051,
4.21429 0,
4.21429 0.097561,
4.21429 1,
4.21429 1.87927,
4.21429 2.06585,
4.21429 2.21951
] }
coordIndex [
249,247,245,-1,
245,247,242,-1,
227,245,242,-1,
225,227,240,-1,
240,227,242,-1,
247,240,242,-1,
227,225,234,-1,
234,225,232,-1,
238,234,232,-1,
236,238,229,-1,
229,238,231,-1,
225,229,231,-1,
238,236,260,-1,
260,236,258,-1,
260,258,267,-1,
267,258,264,-1,
271,267,264,-1,
269,271,262,-1,
262,271,265,-1,
258,262,265,-1,
271,269,256,-1,
256,269,253,-1,
249,256,253,-1,
247,249,251,-1,
251,249,253,-1,
269,251,253,-1,
238,260,227,-1,
227,260,271,-1,
227,271,249,-1,
196,194,192,-1,
192,194,189,-1,
174,192,189,-1,
172,174,187,-1,
187,174,189,-1,
194,187,189,-1,
174,172,181,-1,
181,172,179,-1,
185,181,179,-1,
183,185,176,-1,
176,185,178,-1,
172,176,178,-1,
185,183,208,-1,
208,183,206,-1,
208,206,215,-1,
215,206,212,-1,
219,215,212,-1,
217,219,210,-1,
210,219,213,-1,
206,210,213,-1,
219,217,204,-1,
204,217,202,-1,
196,204,202,-1,
194,196,198,-1,
198,196,200,-1,
217,198,200,-1,
185,208,174,-1,
174,208,219,-1,
174,219,196,-1,
143,141,137,-1,
137,141,134,-1,
119,137,134,-1,
117,119,132,-1,
132,119,134,-1,
141,132,134,-1,
119,117,126,-1,
126,117,124,-1,
130,126,124,-1,
128,130,121,-1,
121,130,123,-1,
117,121,123,-1,
130,128,155,-1,
155,128,153,-1,
155,153,162,-1,
162,153,159,-1,
166,162,159,-1,
164,166,157,-1,
157,166,160,-1,
153,157,160,-1,
166,164,151,-1,
151,164,149,-1,
143,151,149,-1,
141,143,145,-1,
145,143,147,-1,
164,145,147,-1,
119,130,143,-1,
143,130,155,-1,
143,155,166,-1,
89,87,81,-1,
81,87,79,-1,
66,81,79,-1,
64,66,83,-1,
83,66,85,-1,
87,83,85,-1,
66,64,73,-1,
73,64,71,-1,
77,73,71,-1,
75,77,68,-1,
68,77,70,-1,
64,68,70,-1,
77,75,100,-1,
100,75,98,-1,
100,98,107,-1,
107,98,104,-1,
111,107,104,-1,
109,111,102,-1,
102,111,105,-1,
98,102,105,-1,
111,109,96,-1,
96,109,93,-1,
89,96,93,-1,
87,89,91,-1,
91,89,93,-1,
109,91,93,-1,
77,100,66,-1,
66,100,111,-1,
66,111,89,-1,
250,248,246,-1,
246,248,243,-1,
228,246,243,-1,
226,228,241,-1,
241,228,244,-1,
248,241,244,-1,
228,226,235,-1,
235,226,233,-1,
239,235,233,-1,
237,239,230,-1,
230,239,233,-1,
226,230,233,-1,
239,237,261,-1,
261,237,259,-1,
261,259,268,-1,
268,259,266,-1,
272,268,266,-1,
270,272,263,-1,
263,272,266,-1,
259,263,266,-1,
272,270,257,-1,
257,270,255,-1,
250,257,255,-1,
248,250,252,-1,
252,250,254,-1,
270,252,254,-1,
239,261,228,-1,
228,261,272,-1,
228,272,250,-1,
197,195,193,-1,
193,195,190,-1,
175,193,190,-1,
173,175,188,-1,
188,175,191,-1,
195,188,191,-1,
175,173,182,-1,
182,173,180,-1,
186,182,180,-1,
184,186,177,-1,
177,186,180,-1,
173,177,180,-1,
186,184,209,-1,
209,184,207,-1,
209,207,216,-1,
216,207,214,-1,
220,216,214,-1,
218,220,211,-1,
211,220,214,-1,
207,211,214,-1,
220,218,205,-1,
205,218,203,-1,
197,205,203,-1,
195,197,199,-1,
199,197,201,-1,
218,199,201,-1,
186,209,175,-1,
175,209,220,-1,
175,220,197,-1,
144,142,138,-1,
138,142,135,-1,
120,138,135,-1,
118,120,133,-1,
133,120,136,-1,
142,133,136,-1,
120,118,127,-1,
127,118,125,-1,
131,127,125,-1,
129,131,122,-1,
122,131,125,-1,
118,122,125,-1,
131,129,156,-1,
156,129,154,-1,
156,154,163,-1,
163,154,161,-1,
167,163,161,-1,
165,167,158,-1,
158,167,161,-1,
154,158,161,-1,
167,165,152,-1,
152,165,150,-1,
144,152,150,-1,
142,144,146,-1,
146,144,148,-1,
165,146,148,-1,
120,131,144,-1,
144,131,156,-1,
144,156,167,-1,
90,88,82,-1,
82,88,80,-1,
67,82,80,-1,
65,67,84,-1,
84,67,86,-1,
88,84,86,-1,
67,65,74,-1,
74,65,72,-1,
78,74,72,-1,
76,78,69,-1,
69,78,72,-1,
65,69,72,-1,
78,76,101,-1,
101,76,99,-1,
101,99,108,-1,
108,99,106,-1,
112,108,106,-1,
110,112,103,-1,
103,112,106,-1,
99,103,106,-1,
112,110,97,-1,
97,110,95,-1,
90,97,95,-1,
88,90,92,-1,
92,90,94,-1,
110,92,94,-1,
78,101,67,-1,
67,101,112,-1,
67,112,90,-1,
6,7,279,-1,
279,7,280,-1,
7,6,5,-1,
4,0,5,-1,
5,0,1,-1,
5,1,7,-1,
7,1,2,-1,
7,2,3,-1,
113,4,168,-1,
168,4,277,-1,
168,277,221,-1,
221,277,273,-1,
113,60,4,-1,
4,60,8,-1,
4,8,0,-1,
274,273,278,-1,
278,273,277,-1,
278,279,274,-1,
274,279,280,-1,
274,280,275,-1,
275,280,276,-1,
236,225,222,-1,
222,225,247,-1,
222,247,274,-1,
274,247,269,-1,
274,269,273,-1,
273,269,258,-1,
273,258,221,-1,
221,258,236,-1,
221,236,222,-1,
237,226,223,-1,
223,226,248,-1,
223,248,275,-1,
275,248,270,-1,
275,270,274,-1,
183,172,169,-1,
169,172,194,-1,
169,194,222,-1,
222,194,217,-1,
222,217,221,-1,
221,217,206,-1,
221,206,168,-1,
168,206,183,-1,
168,183,169,-1,
170,195,223,-1,
223,195,222,-1,
223,222,237,-1,
237,222,274,-1,
237,274,259,-1,
259,274,270,-1,
195,218,222,-1,
222,218,207,-1,
222,207,169,-1,
169,207,184,-1,
169,184,170,-1,
170,184,173,-1,
170,173,195,-1,
128,117,114,-1,
114,117,139,-1,
114,139,169,-1,
169,139,164,-1,
169,164,168,-1,
168,164,153,-1,
168,153,113,-1,
113,153,128,-1,
113,128,114,-1,
129,118,115,-1,
115,118,140,-1,
115,140,170,-1,
170,140,165,-1,
170,165,169,-1,
169,165,154,-1,
169,154,114,-1,
75,64,61,-1,
61,64,87,-1,
61,87,114,-1,
114,87,109,-1,
114,109,113,-1,
113,109,98,-1,
113,98,60,-1,
60,98,75,-1,
60,75,61,-1,
62,88,115,-1,
115,88,114,-1,
115,114,129,-1,
129,114,154,-1,
88,110,114,-1,
114,110,99,-1,
114,99,61,-1,
61,99,76,-1,
61,76,62,-1,
62,76,65,-1,
62,65,88,-1,
23,12,9,-1,
9,12,34,-1,
9,34,61,-1,
61,34,56,-1,
61,56,60,-1,
60,56,45,-1,
60,45,8,-1,
24,9,46,-1,
46,9,61,-1,
46,61,57,-1,
57,61,62,-1,
57,62,35,-1,
35,62,10,-1,
35,10,13,-1,
45,23,8,-1,
8,23,9,-1,
8,9,0,-1,
0,9,1,-1,
24,13,9,-1,
9,13,10,-1,
9,10,1,-1,
1,10,2,-1,
275,276,223,-1,
223,276,224,-1,
223,224,170,-1,
170,224,171,-1,
170,171,115,-1,
115,171,116,-1,
115,116,62,-1,
62,116,63,-1,
62,63,10,-1,
10,63,11,-1,
10,11,2,-1,
2,11,3,-1,
224,276,280,-1,
7,3,11,-1,
11,63,7,-1,
7,63,116,-1,
7,116,280,-1,
280,116,171,-1,
280,171,224,-1,
278,5,279,-1,
279,5,6,-1,
277,4,278,-1,
278,4,5,-1,
26,48,15,-1,
15,48,59,-1,
15,59,37,-1,
37,35,33,-1,
33,35,30,-1,
15,33,30,-1,
13,15,28,-1,
28,15,31,-1,
35,28,31,-1,
15,13,22,-1,
22,13,20,-1,
26,22,20,-1,
24,26,17,-1,
17,26,20,-1,
13,17,20,-1,
26,24,48,-1,
48,24,46,-1,
48,46,55,-1,
55,46,53,-1,
59,55,53,-1,
57,59,50,-1,
50,59,53,-1,
46,50,53,-1,
59,57,44,-1,
44,57,42,-1,
37,44,42,-1,
35,37,39,-1,
39,37,41,-1,
57,39,41,-1,
25,47,14,-1,
14,47,58,-1,
14,58,36,-1,
36,34,32,-1,
32,34,29,-1,
14,32,29,-1,
12,14,27,-1,
27,14,29,-1,
34,27,29,-1,
14,12,21,-1,
21,12,19,-1,
25,21,19,-1,
23,25,16,-1,
16,25,18,-1,
12,16,18,-1,
25,23,47,-1,
47,23,45,-1,
47,45,54,-1,
54,45,51,-1,
58,54,51,-1,
56,58,49,-1,
49,58,52,-1,
45,49,52,-1,
58,56,43,-1,
43,56,40,-1,
36,43,40,-1,
34,36,38,-1,
38,36,40,-1,
56,38,40,-1
]
normalIndex [
5,5,12,-1,
12,5,12,-1,
14,12,12,-1,
14,14,12,-1,
12,14,12,-1,
5,12,12,-1,
14,14,13,-1,
13,14,13,-1,
11,13,13,-1,
11,11,13,-1,
13,11,13,-1,
14,13,13,-1,
11,11,4,-1,
4,11,4,-1,
4,4,2,-1,
2,4,2,-1,
1,2,2,-1,
1,1,2,-1,
2,1,2,-1,
4,2,2,-1,
1,1,3,-1,
3,1,3,-1,
5,3,3,-1,
5,5,3,-1,
3,5,3,-1,
1,3,3,-1,
10,10,10,-1,
10,10,10,-1,
10,10,10,-1,
5,5,12,-1,
12,5,12,-1,
14,12,12,-1,
14,14,12,-1,
12,14,12,-1,
5,12,12,-1,
14,14,13,-1,
13,14,13,-1,
11,13,13,-1,
11,11,13,-1,
13,11,13,-1,
14,13,13,-1,
11,11,4,-1,
4,11,4,-1,
4,4,2,-1,
2,4,2,-1,
1,2,2,-1,
1,1,2,-1,
2,1,2,-1,
4,2,2,-1,
1,1,3,-1,
3,1,3,-1,
5,3,3,-1,
5,5,3,-1,
3,5,3,-1,
1,3,3,-1,
10,10,10,-1,
10,10,10,-1,
10,10,10,-1,
5,5,12,-1,
12,5,12,-1,
14,12,12,-1,
14,14,12,-1,
12,14,12,-1,
5,12,12,-1,
14,14,13,-1,
13,14,13,-1,
11,13,13,-1,
11,11,13,-1,
13,11,13,-1,
14,13,13,-1,
11,11,4,-1,
4,11,4,-1,
4,4,2,-1,
2,4,2,-1,
1,2,2,-1,
1,1,2,-1,
2,1,2,-1,
4,2,2,-1,
1,1,3,-1,
3,1,3,-1,
5,3,3,-1,
5,5,3,-1,
3,5,3,-1,
1,3,3,-1,
10,10,10,-1,
10,10,10,-1,
10,10,10,-1,
5,5,12,-1,
12,5,12,-1,
14,12,12,-1,
14,14,12,-1,
12,14,12,-1,
5,12,12,-1,
14,14,13,-1,
13,14,13,-1,
11,13,13,-1,
11,11,13,-1,
13,11,13,-1,
14,13,13,-1,
11,11,4,-1,
4,11,4,-1,
4,4,2,-1,
2,4,2,-1,
1,2,2,-1,
1,1,2,-1,
2,1,2,-1,
4,2,2,-1,
1,1,3,-1,
3,1,3,-1,
5,3,3,-1,
5,5,3,-1,
3,5,3,-1,
1,3,3,-1,
10,10,10,-1,
10,10,10,-1,
10,10,10,-1,
5,5,12,-1,
12,5,12,-1,
14,12,12,-1,
14,14,12,-1,
12,14,12,-1,
5,12,12,-1,
14,14,13,-1,
13,14,13,-1,
11,13,13,-1,
11,11,13,-1,
13,11,13,-1,
14,13,13,-1,
11,11,4,-1,
4,11,4,-1,
4,4,2,-1,
2,4,2,-1,
1,2,2,-1,
1,1,2,-1,
2,1,2,-1,
4,2,2,-1,
1,1,3,-1,
3,1,3,-1,
5,3,3,-1,
5,5,3,-1,
3,5,3,-1,
1,3,3,-1,
10,10,10,-1,
10,10,10,-1,
10,10,10,-1,
5,5,12,-1,
12,5,12,-1,
14,12,12,-1,
14,14,12,-1,
12,14,12,-1,
5,12,12,-1,
14,14,13,-1,
13,14,13,-1,
11,13,13,-1,
11,11,13,-1,
13,11,13,-1,
14,13,13,-1,
11,11,4,-1,
4,11,4,-1,
4,4,2,-1,
2,4,2,-1,
1,2,2,-1,
1,1,2,-1,
2,1,2,-1,
4,2,2,-1,
1,1,3,-1,
3,1,3,-1,
5,3,3,-1,
5,5,3,-1,
3,5,3,-1,
1,3,3,-1,
10,10,10,-1,
10,10,10,-1,
10,10,10,-1,
5,5,12,-1,
12,5,12,-1,
14,12,12,-1,
14,14,12,-1,
12,14,12,-1,
5,12,12,-1,
14,14,13,-1,
13,14,13,-1,
11,13,13,-1,
11,11,13,-1,
13,11,13,-1,
14,13,13,-1,
11,11,4,-1,
4,11,4,-1,
4,4,2,-1,
2,4,2,-1,
1,2,2,-1,
1,1,2,-1,
2,1,2,-1,
4,2,2,-1,
1,1,3,-1,
3,1,3,-1,
5,3,3,-1,
5,5,3,-1,
3,5,3,-1,
1,3,3,-1,
10,10,10,-1,
10,10,10,-1,
10,10,10,-1,
5,5,12,-1,
12,5,12,-1,
14,12,12,-1,
14,14,12,-1,
12,14,12,-1,
5,12,12,-1,
14,14,13,-1,
13,14,13,-1,
11,13,13,-1,
11,11,13,-1,
13,11,13,-1,
14,13,13,-1,
11,11,4,-1,
4,11,4,-1,
4,4,2,-1,
2,4,2,-1,
1,2,2,-1,
1,1,2,-1,
2,1,2,-1,
4,2,2,-1,
1,1,3,-1,
3,1,3,-1,
5,3,3,-1,
5,5,3,-1,
3,5,3,-1,
1,3,3,-1,
10,10,10,-1,
10,10,10,-1,
10,10,10,-1,
9,9,9,-1,
9,9,9,-1,
0,0,0,-1,
0,0,0,-1,
0,0,0,-1,
0,0,0,-1,
0,0,0,-1,
0,0,0,-1,
7,7,7,-1,
7,7,7,-1,
7,7,7,-1,
7,7,7,-1,
7,7,7,-1,
7,7,7,-1,
7,7,7,-1,
15,15,15,-1,
15,15,15,-1,
15,15,15,-1,
15,15,15,-1,
15,15,15,-1,
15,15,15,-1,
6,6,6,-1,
6,6,6,-1,
6,6,6,-1,
6,6,6,-1,
6,6,6,-1,
6,6,6,-1,
6,6,6,-1,
6,6,6,-1,
6,6,6,-1,
6,6,6,-1,
6,6,6,-1,
6,6,6,-1,
6,6,6,-1,
6,6,6,-1,
6,6,6,-1,
6,6,6,-1,
6,6,6,-1,
6,6,6,-1,
6,6,6,-1,
6,6,6,-1,
6,6,6,-1,
6,6,6,-1,
6,6,6,-1,
6,6,6,-1,
6,6,6,-1,
6,6,6,-1,
6,6,6,-1,
6,6,6,-1,
6,6,6,-1,
6,6,6,-1,
6,6,6,-1,
6,6,6,-1,
6,6,6,-1,
6,6,6,-1,
6,6,6,-1,
6,6,6,-1,
6,6,6,-1,
6,6,6,-1,
6,6,6,-1,
6,6,6,-1,
6,6,6,-1,
6,6,6,-1,
6,6,6,-1,
6,6,6,-1,
6,6,6,-1,
6,6,6,-1,
6,6,6,-1,
6,6,6,-1,
6,6,6,-1,
6,6,6,-1,
6,6,6,-1,
6,6,6,-1,
6,6,6,-1,
6,6,6,-1,
6,6,6,-1,
6,6,6,-1,
6,6,6,-1,
6,6,6,-1,
6,6,6,-1,
6,6,6,-1,
6,6,6,-1,
6,6,6,-1,
6,6,6,-1,
6,6,6,-1,
6,6,6,-1,
6,6,6,-1,
6,6,6,-1,
6,6,6,-1,
6,6,6,-1,
6,6,6,-1,
6,6,6,-1,
6,6,6,-1,
6,6,6,-1,
6,6,6,-1,
6,6,6,-1,
6,6,6,-1,
6,6,6,-1,
6,6,6,-1,
6,6,6,-1,
6,6,6,-1,
6,6,6,-1,
6,6,6,-1,
6,6,6,-1,
6,6,6,-1,
6,6,6,-1,
6,6,6,-1,
6,6,6,-1,
6,6,6,-1,
6,6,6,-1,
6,6,6,-1,
6,6,6,-1,
6,6,6,-1,
6,6,6,-1,
6,6,6,-1,
6,6,6,-1,
6,6,6,-1,
6,6,6,-1,
6,6,6,-1,
6,6,6,-1,
6,6,6,-1,
6,6,6,-1,
6,6,6,-1,
6,6,6,-1,
6,6,6,-1,
6,6,6,-1,
6,6,6,-1,
8,8,8,-1,
8,8,8,-1,
8,8,8,-1,
8,8,8,-1,
8,8,8,-1,
8,8,8,-1,
8,8,8,-1,
7,7,7,-1,
7,7,7,-1,
9,9,9,-1,
9,9,9,-1,
10,10,10,-1,
10,10,10,-1,
10,10,10,-1,
5,5,12,-1,
12,5,12,-1,
14,12,12,-1,
14,14,12,-1,
12,14,12,-1,
5,12,12,-1,
14,14,13,-1,
13,14,13,-1,
11,13,13,-1,
11,11,13,-1,
13,11,13,-1,
14,13,13,-1,
11,11,4,-1,
4,11,4,-1,
4,4,2,-1,
2,4,2,-1,
1,2,2,-1,
1,1,2,-1,
2,1,2,-1,
4,2,2,-1,
1,1,3,-1,
3,1,3,-1,
5,3,3,-1,
5,5,3,-1,
3,5,3,-1,
1,3,3,-1,
10,10,10,-1,
10,10,10,-1,
10,10,10,-1,
5,5,12,-1,
12,5,12,-1,
14,12,12,-1,
14,14,12,-1,
12,14,12,-1,
5,12,12,-1,
14,14,13,-1,
13,14,13,-1,
11,13,13,-1,
11,11,13,-1,
13,11,13,-1,
14,13,13,-1,
11,11,4,-1,
4,11,4,-1,
4,4,2,-1,
2,4,2,-1,
1,2,2,-1,
1,1,2,-1,
2,1,2,-1,
4,2,2,-1,
1,1,3,-1,
3,1,3,-1,
5,3,3,-1,
5,5,3,-1,
3,5,3,-1,
1,3,3,-1
]
texCoordIndex [
11,10,15,-1,
15,10,13,-1,
105,106,97,-1,
88,105,89,-1,
89,105,99,-1,
10,12,14,-1,
105,88,104,-1,
104,88,102,-1,
235,233,232,-1,
234,235,231,-1,
231,235,232,-1,
88,86,101,-1,
235,234,241,-1,
241,234,240,-1,
241,240,247,-1,
247,240,245,-1,
72,71,83,-1,
88,72,87,-1,
87,72,81,-1,
240,244,246,-1,
72,88,73,-1,
73,88,79,-1,
11,9,7,-1,
10,11,6,-1,
6,11,8,-1,
88,89,77,-1,
236,242,229,-1,
229,242,248,-1,
229,248,238,-1,
22,21,26,-1,
26,21,24,-1,
105,106,97,-1,
88,105,89,-1,
89,105,99,-1,
21,23,25,-1,
105,88,104,-1,
104,88,102,-1,
209,207,206,-1,
208,209,205,-1,
205,209,206,-1,
88,86,101,-1,
209,208,215,-1,
215,208,214,-1,
215,214,221,-1,
221,214,219,-1,
72,71,83,-1,
88,72,87,-1,
87,72,81,-1,
214,218,220,-1,
72,88,73,-1,
73,88,79,-1,
22,18,17,-1,
21,22,19,-1,
19,22,20,-1,
88,89,77,-1,
210,216,203,-1,
203,216,222,-1,
203,222,212,-1,
33,32,37,-1,
37,32,35,-1,
105,106,97,-1,
88,105,89,-1,
89,105,99,-1,
32,34,36,-1,
105,88,104,-1,
104,88,102,-1,
183,181,180,-1,
182,183,179,-1,
179,183,180,-1,
88,86,101,-1,
183,182,189,-1,
189,182,188,-1,
189,188,195,-1,
195,188,193,-1,
72,71,83,-1,
88,72,87,-1,
87,72,81,-1,
188,192,194,-1,
72,88,73,-1,
73,88,79,-1,
33,29,28,-1,
32,33,30,-1,
30,33,31,-1,
88,89,77,-1,
177,184,186,-1,
186,184,190,-1,
186,190,196,-1,
44,43,48,-1,
48,43,47,-1,
105,106,97,-1,
88,105,89,-1,
89,105,99,-1,
43,45,46,-1,
105,88,104,-1,
104,88,102,-1,
157,155,154,-1,
156,157,153,-1,
153,157,154,-1,
88,86,101,-1,
157,156,163,-1,
163,156,162,-1,
163,162,169,-1,
169,162,167,-1,
72,71,83,-1,
88,72,87,-1,
87,72,81,-1,
162,166,168,-1,
72,88,73,-1,
73,88,79,-1,
44,42,40,-1,
43,44,39,-1,
39,44,41,-1,
88,89,77,-1,
158,164,151,-1,
151,164,170,-1,
151,170,160,-1,
11,10,15,-1,
15,10,13,-1,
108,109,98,-1,
92,108,94,-1,
94,108,100,-1,
10,12,14,-1,
108,92,107,-1,
107,92,103,-1,
235,233,232,-1,
234,235,231,-1,
231,235,232,-1,
92,91,103,-1,
235,234,241,-1,
241,234,240,-1,
241,240,247,-1,
247,240,245,-1,
75,74,84,-1,
92,75,91,-1,
91,75,82,-1,
240,244,246,-1,
75,92,76,-1,
76,92,80,-1,
11,9,7,-1,
10,11,6,-1,
6,11,8,-1,
92,93,78,-1,
237,243,230,-1,
230,243,249,-1,
230,249,239,-1,
22,21,26,-1,
26,21,24,-1,
108,109,98,-1,
92,108,94,-1,
94,108,100,-1,
21,23,25,-1,
108,92,107,-1,
107,92,103,-1,
209,207,206,-1,
208,209,205,-1,
205,209,206,-1,
92,91,103,-1,
209,208,215,-1,
215,208,214,-1,
215,214,221,-1,
221,214,219,-1,
75,74,84,-1,
92,75,91,-1,
91,75,82,-1,
214,218,220,-1,
75,92,76,-1,
76,92,80,-1,
22,18,17,-1,
21,22,19,-1,
19,22,20,-1,
92,93,78,-1,
211,217,204,-1,
204,217,223,-1,
204,223,213,-1,
33,32,37,-1,
37,32,35,-1,
108,109,98,-1,
92,108,94,-1,
94,108,100,-1,
32,34,36,-1,
108,92,107,-1,
107,92,103,-1,
183,181,180,-1,
182,183,179,-1,
179,183,180,-1,
92,91,103,-1,
183,182,189,-1,
189,182,188,-1,
189,188,195,-1,
195,188,193,-1,
75,74,84,-1,
92,75,91,-1,
91,75,82,-1,
188,192,194,-1,
75,92,76,-1,
76,92,80,-1,
33,29,28,-1,
32,33,30,-1,
30,33,31,-1,
92,93,78,-1,
178,185,187,-1,
187,185,191,-1,
187,191,197,-1,
44,43,48,-1,
48,43,47,-1,
108,109,98,-1,
92,108,94,-1,
94,108,100,-1,
43,45,46,-1,
108,92,107,-1,
107,92,103,-1,
157,155,154,-1,
156,157,153,-1,
153,157,154,-1,
92,91,103,-1,
157,156,163,-1,
163,156,162,-1,
163,162,169,-1,
169,162,167,-1,
75,74,84,-1,
92,75,91,-1,
91,75,82,-1,
162,166,168,-1,
75,92,76,-1,
76,92,80,-1,
44,42,40,-1,
43,44,39,-1,
39,44,41,-1,
92,93,78,-1,
159,165,152,-1,
152,165,171,-1,
152,171,161,-1,
65,66,4,-1,
4,66,5,-1,
68,67,70,-1,
69,85,70,-1,
70,85,90,-1,
70,90,68,-1,
68,90,95,-1,
68,95,96,-1,
38,62,27,-1,
27,62,1,-1,
27,1,16,-1,
16,1,0,-1,
38,49,62,-1,
62,49,60,-1,
62,60,61,-1,
90,85,111,-1,
111,85,110,-1,
111,112,90,-1,
90,112,113,-1,
90,113,95,-1,
95,113,96,-1,
236,229,226,-1,
226,229,238,-1,
226,238,253,-1,
253,238,248,-1,
253,248,252,-1,
252,248,242,-1,
252,242,225,-1,
225,242,236,-1,
225,236,226,-1,
237,230,227,-1,
227,230,239,-1,
227,239,254,-1,
254,239,249,-1,
254,249,253,-1,
210,203,200,-1,
200,203,212,-1,
200,212,226,-1,
226,212,222,-1,
226,222,225,-1,
225,222,216,-1,
225,216,199,-1,
199,216,210,-1,
199,210,200,-1,
201,213,227,-1,
227,213,226,-1,
227,226,237,-1,
237,226,253,-1,
237,253,243,-1,
243,253,249,-1,
213,223,226,-1,
226,223,217,-1,
226,217,200,-1,
200,217,211,-1,
200,211,201,-1,
201,211,204,-1,
201,204,213,-1,
184,177,174,-1,
174,177,186,-1,
174,186,200,-1,
200,186,196,-1,
200,196,199,-1,
199,196,190,-1,
199,190,173,-1,
173,190,184,-1,
173,184,174,-1,
185,178,175,-1,
175,178,187,-1,
175,187,201,-1,
201,187,197,-1,
201,197,200,-1,
200,197,191,-1,
200,191,174,-1,
158,151,148,-1,
148,151,160,-1,
148,160,174,-1,
174,160,170,-1,
174,170,173,-1,
173,170,164,-1,
173,164,147,-1,
147,164,158,-1,
147,158,148,-1,
149,161,175,-1,
175,161,174,-1,
175,174,185,-1,
185,174,191,-1,
161,171,174,-1,
174,171,165,-1,
174,165,148,-1,
148,165,159,-1,
148,159,149,-1,
149,159,152,-1,
149,152,161,-1,
132,125,122,-1,
122,125,134,-1,
122,134,148,-1,
148,134,144,-1,
148,144,147,-1,
147,144,138,-1,
147,138,121,-1,
133,122,139,-1,
139,122,148,-1,
139,148,145,-1,
145,148,149,-1,
145,149,135,-1,
135,149,123,-1,
135,123,126,-1,
138,132,121,-1,
121,132,122,-1,
121,122,116,-1,
116,122,117,-1,
133,126,122,-1,
122,126,123,-1,
122,123,117,-1,
117,123,118,-1,
254,255,227,-1,
227,255,228,-1,
227,228,201,-1,
201,228,202,-1,
201,202,175,-1,
175,202,176,-1,
175,176,149,-1,
149,176,150,-1,
149,150,123,-1,
123,150,124,-1,
123,124,118,-1,
118,124,119,-1,
224,250,251,-1,
115,114,120,-1,
120,146,115,-1,
115,146,172,-1,
115,172,251,-1,
251,172,198,-1,
251,198,224,-1,
1,62,2,-1,
2,62,63,-1,
3,64,4,-1,
4,64,65,-1,
133,139,126,-1,
126,139,145,-1,
126,145,135,-1,
55,54,59,-1,
59,54,57,-1,
108,109,98,-1,
92,108,94,-1,
94,108,100,-1,
54,56,58,-1,
108,92,107,-1,
107,92,103,-1,
131,129,128,-1,
130,131,127,-1,
127,131,128,-1,
92,91,103,-1,
131,130,137,-1,
137,130,136,-1,
137,136,143,-1,
143,136,141,-1,
75,74,84,-1,
92,75,91,-1,
91,75,82,-1,
136,140,142,-1,
75,92,76,-1,
76,92,80,-1,
55,53,51,-1,
54,55,50,-1,
50,55,52,-1,
92,93,78,-1,
132,138,125,-1,
125,138,144,-1,
125,144,134,-1,
55,54,59,-1,
59,54,57,-1,
105,106,97,-1,
88,105,89,-1,
89,105,99,-1,
54,56,58,-1,
105,88,104,-1,
104,88,102,-1,
131,129,128,-1,
130,131,127,-1,
127,131,128,-1,
88,86,101,-1,
131,130,137,-1,
137,130,136,-1,
137,136,143,-1,
143,136,141,-1,
72,71,83,-1,
88,72,87,-1,
87,72,81,-1,
136,140,142,-1,
72,88,73,-1,
73,88,79,-1,
55,53,51,-1,
54,55,50,-1,
50,55,52,-1,
88,89,77,-1
]
}
}

DirectionalLight {
color 1.000 1.000 1.000
ambientIntensity 1
intensity 0
}

Viewpoint {
fieldOfView 0.785398
position 0 0 6.4007812
}

NavigationInfo {
headlight TRUE
type ["EXAMINE","ANY"]
avatarSize [ 0, 0, 0 ]
}
